# xmcd
#
# Track frame offsets:
#	150
#	19304
#	39410
#	69677
#	85694
#	106577
#	126313
#	140889
#	165379
#	182716
#	195931
#	208822
#	230052
#	258071
#	283217
#
# Disc length: 4314 seconds
#
# Revision: 0
# Processed by: cddbd v1.5.2PL0 Copyright (c) Steve Scherf et al.
# Submitted via: dBpowerAMP V4.0
#
DISCID=d510d80f
DTITLE=Lost State of Franklin - Quarter to Lonely
DYEAR=2006
DGENRE=Bluegrass
TTITLE0=Clint Eastwood
TTITLE1=Trains
TTITLE2=600 Miles
TTITLE3=Fly
TTITLE4=Quarter to Lonely
TTITLE5=Wanderin Man
TTITLE6=Been A Long Time
TTITLE7=Cold Day
TTITLE8=What I Think
TTITLE9=Old Dog
TTITLE10=Pickin Pears
TTITLE11=21st Century Woman
TTITLE12=Ugly Girlfriend
TTITLE13=Credits
TTITLE14=Being Careless
EXTD=This band is really more bluegrass than country.
EXTT0=
EXTT1=
EXTT2=
EXTT3=
EXTT4=
EXTT5=
EXTT6=
EXTT7=
EXTT8=
EXTT9=
EXTT10=
EXTT11=
EXTT12=
EXTT13=
EXTT14=
PLAYORDER=
